<svg width="512" height="512" viewBox="0 0 512 512" fill="none" xmlns="http://www.w3.org/2000/svg">
<path fillRule="evenodd" clipRule="evenodd" d="M506 6H6V506H506V6ZM254.537 149.172C285.193 148.641 308.627 160.686 335.025 176.002C341.832 166.999 347.885 159.256 353.957 151.488C360.049 143.695 366.162 135.876 373.074 126.734C321.107 93.3378 281.623 70.6582 209.959 92.8066C163.316 107.221 144.293 153.562 144.293 176.49C141.447 215.594 158.354 248.787 199.902 265.758C205.064 267.866 210.246 270.011 215.445 272.163C232.888 279.384 250.519 286.682 268.176 292.91C287.428 299.701 307.166 311.859 302.83 334.539C298.02 359.689 273.758 360.711 252.346 358.875C230.917 357.038 213.254 348.184 194.513 338.789C186.695 334.87 178.69 330.857 170.146 327.221C163.854 336.806 157.036 344.893 150.207 352.992C143.357 361.116 136.497 369.253 130.146 378.928C180.391 411.123 239.857 434.186 301.096 419.045C347.961 407.459 377.449 372.316 380.879 323.318C383.574 284.809 360.771 254.795 316.301 236.262C309.878 233.585 303.648 230.945 297.5 228.339C280.235 221.021 263.627 213.982 245.268 207.221C230.256 201.693 215.826 192.689 218.773 176.457C221.939 159.01 236.998 149.477 254.537 149.172Z" fill="#34BDB2"/>
</svg>
