<svg width="512" height="146" viewBox="0 0 512 146" fill="none" xmlns="http://www.w3.org/2000/svg">
<g clip-path="url(#clip0_308_2641)">
<path fill-rule="evenodd" clip-rule="evenodd" d="M476.714 60.4627C476.252 60.5551 475.791 61.5704 475.791 62.1239C475.699 65.8149 475.607 75.5973 475.607 82.2412C475.607 82.426 475.883 82.7947 476.16 82.7947C477.544 82.8871 480.867 82.9795 483.727 82.9795C487.695 82.9795 490.002 82.426 491.295 81.8726C494.616 80.2114 496.185 76.6118 496.185 72.6436C496.185 63.6927 489.91 60.2779 480.589 60.2779C479.944 60.1864 478.098 60.1864 476.714 60.4627ZM500.523 101.713C500.523 92.5771 493.786 87.5011 481.605 87.5011C481.051 87.5011 477.175 87.4087 476.252 87.5935C475.975 87.6859 475.607 87.8707 475.607 88.1478C475.607 94.6993 475.514 105.128 475.791 109.187C475.975 110.941 477.268 113.433 478.837 114.171C480.497 115.094 484.281 115.278 486.865 115.278C494.155 115.278 500.523 111.218 500.523 101.713ZM457.889 55.3876C458.811 55.3876 461.58 55.6639 468.686 55.6639C475.422 55.6639 480.774 55.48 487.327 55.48C495.354 55.48 506.429 58.3404 506.429 70.3366C506.429 76.2432 502.276 80.9496 496.831 83.2566C496.555 83.349 496.555 83.5329 496.831 83.6253C504.583 85.5636 511.412 90.3624 511.412 99.4058C511.412 108.265 505.875 113.894 497.846 117.401C492.955 119.523 486.865 120.261 480.682 120.261C475.975 120.261 463.333 119.708 456.32 119.893C455.582 119.616 456.966 116.293 457.612 115.74C459.273 115.647 460.564 115.555 462.318 115.001C464.81 114.356 465.086 113.617 465.456 109.834C465.64 106.604 465.64 95.1604 465.64 87.0401C465.64 75.8736 465.733 68.3067 465.64 64.6157C465.548 61.7552 464.533 60.8322 462.503 60.2779C460.934 60.0016 458.35 59.6321 456.228 59.3558C455.766 58.8939 457.334 55.7562 457.889 55.3876ZM404.642 112.787C406.857 114.54 411.194 115.278 415.07 115.278C420.053 115.278 425.036 114.356 429.835 110.018C434.726 105.589 438.14 98.7599 438.14 87.8706C438.14 77.4424 434.172 68.9526 426.051 63.9698C421.437 61.1085 415.531 59.9092 408.702 59.9092C406.672 59.9092 404.734 60.0016 403.535 60.5551C403.258 60.7398 402.612 61.5704 402.612 62.0315C402.427 63.8774 402.427 78.0883 402.427 86.3942C402.427 94.9765 402.427 106.973 402.612 108.357C402.612 109.742 403.258 111.864 404.642 112.787ZM383.694 55.3876C385.447 55.3876 392.183 55.6639 395.413 55.6639C401.228 55.6639 405.38 55.3876 416.361 55.3876C425.59 55.3876 433.341 57.8794 438.878 62.5849C445.615 68.3991 449.122 76.4279 449.122 86.2095C449.122 100.144 442.754 108.173 436.386 112.787C430.02 117.493 421.714 120.261 409.902 120.261C403.627 120.261 392.83 120.077 383.878 119.984H383.786C383.325 119.154 384.524 115.924 385.262 115.832C387.662 115.555 388.308 115.463 389.508 115.001C391.445 114.263 391.815 113.248 392.092 109.834C392.368 103.466 392.276 95.8071 392.276 87.1324C392.276 80.9496 392.368 68.8602 392.183 64.9843C391.907 61.7552 390.523 60.9246 387.754 60.3703C386.37 60.094 384.524 59.7245 381.941 59.4482C381.571 58.8015 383.233 55.941 383.694 55.3876Z" fill="#8E714E"/>
<path fill-rule="evenodd" clip-rule="evenodd" d="M272.033 116.385C269.726 116.108 268.065 115.74 266.035 114.817C265.758 114.632 265.296 113.71 265.296 113.34C265.112 110.11 265.112 100.882 265.112 94.6992C265.112 89.7157 264.282 85.3788 262.159 82.3335C259.667 78.8264 256.068 76.7965 251.454 76.7965C247.394 76.7965 241.949 79.5655 237.427 83.4413C237.335 83.5328 236.597 84.1795 236.689 83.1641C236.689 82.1488 236.874 80.1189 236.966 78.7349C237.059 77.4423 236.32 76.7965 236.32 76.7965C233.367 78.2729 225.062 80.2113 222.016 80.4876C219.802 80.9495 219.248 83.0717 221.555 83.81H221.648C224.139 84.5482 225.8 85.3788 227.091 86.2094C228.014 86.9476 227.922 87.9629 227.922 88.7935C228.014 95.7146 228.014 106.327 227.738 112.141C227.646 114.448 227 115.278 225.339 115.647L225.523 115.555C224.231 115.832 223.216 116.108 221.647 116.293C221.093 116.846 221.093 119.8 221.647 120.446C222.662 120.446 228.014 120.169 232.445 120.169C238.535 120.169 241.673 120.446 243.241 120.446C243.887 119.708 244.072 116.939 243.703 116.293C241.949 116.201 240.657 116.017 239.458 115.647C237.797 115.278 237.335 114.448 237.243 112.51C237.059 107.618 237.059 97.2834 237.059 90.27C237.059 88.3316 237.612 87.4086 238.165 86.8552C240.288 85.0101 243.703 83.7176 246.748 83.7176C249.701 83.7176 251.639 84.6406 253.115 85.8407C255.145 87.501 255.791 89.9004 256.068 91.654C256.529 95.6222 256.345 103.466 256.345 110.295C256.345 113.986 256.068 114.909 254.684 115.37C254.038 115.647 252.377 116.017 250.439 116.201C249.793 116.846 249.978 119.708 250.439 120.354C253.115 120.354 256.253 120.076 260.867 120.076C266.588 120.076 270.28 120.354 271.756 120.354C272.217 119.8 272.402 117.124 272.033 116.385H272.033ZM297.595 81.1343C292.704 81.1343 289.659 84.9177 289.659 90.8234C289.659 96.8215 292.335 103.743 299.903 103.743C301.194 103.743 303.594 103.189 304.7 101.897C306.454 100.236 307.654 96.9139 307.654 93.4076C307.654 85.7483 303.87 81.1343 297.595 81.1343ZM296.949 121.922C295.104 121.922 293.811 122.476 292.981 122.938C289.105 125.429 287.352 127.828 287.352 130.689C287.352 133.365 288.367 135.487 290.582 137.333C293.258 139.64 296.949 140.748 301.655 140.748C311.068 140.748 315.221 135.672 315.221 130.689C315.221 127.182 313.467 124.875 309.869 123.584C307.285 122.476 302.578 121.922 296.949 121.922ZM297.595 145.916C291.966 145.916 287.905 144.716 284.399 142.04C280.984 139.456 279.508 135.58 279.508 132.904C279.508 132.166 279.693 130.135 281.354 128.29C282.368 127.182 284.583 125.06 289.844 121.461C290.028 121.369 290.12 121.277 290.12 121.092C290.12 120.907 289.935 120.722 289.751 120.631C285.414 118.97 284.122 116.293 283.752 114.817V114.632C283.661 114.078 283.476 113.525 284.307 112.971C284.953 112.51 285.876 111.956 286.89 111.31C288.459 110.387 290.12 109.372 291.135 108.541C291.32 108.357 291.32 108.173 291.32 107.988C291.32 107.803 291.135 107.618 290.951 107.527C284.492 105.404 281.262 100.605 281.262 93.4076C281.262 88.7012 283.384 84.4558 287.167 81.7801C289.751 79.7494 296.211 77.2584 300.456 77.2584H300.733C305.07 77.35 307.469 78.2729 310.883 79.4731C312.729 80.1189 314.483 80.3952 316.882 80.3952C320.481 80.3952 322.05 79.2883 323.341 77.9966C323.434 78.1805 323.619 78.6425 323.711 79.8417C323.803 81.0419 323.434 82.7946 322.511 84.0871C321.773 85.1016 320.112 85.8407 318.451 85.8407H317.989C316.328 85.6559 315.59 85.4712 315.59 85.4712L315.221 85.6559C315.129 85.8407 315.221 86.0246 315.313 86.3018L315.406 86.4865C315.59 87.3171 315.959 89.808 315.959 90.4547C315.959 98.0216 312.914 101.343 309.684 103.835C306.546 106.142 302.948 107.618 298.887 107.988C298.795 107.988 298.426 107.988 297.595 108.08C297.134 108.08 296.488 108.173 296.395 108.173H296.303C295.565 108.357 293.72 109.28 293.72 110.848C293.72 112.232 294.55 113.894 298.518 114.171C299.348 114.263 300.179 114.263 301.102 114.356C306.362 114.724 312.914 115.186 315.959 116.201C320.204 117.769 322.88 121.553 322.88 126.075C322.88 132.904 317.989 139.272 309.869 143.239C305.901 144.993 301.932 145.916 297.595 145.916ZM350.196 81.5953C348.258 81.5953 346.504 82.0564 345.212 82.9794C341.614 85.194 339.768 89.6241 339.768 96.0833C339.768 108.173 345.858 116.663 354.533 116.663C357.117 116.663 359.147 115.924 360.9 114.448C363.576 112.232 364.961 107.803 364.961 101.62C364.961 89.6241 358.962 81.5953 350.196 81.5953ZM351.857 121.092C336.169 121.092 330.54 109.557 330.54 98.7598C330.54 91.1929 333.585 85.3788 339.675 81.2258C344.013 78.5501 349.181 77.0737 353.795 77.0737C365.791 77.0737 374.189 85.6559 374.189 98.0216C374.189 106.419 370.867 113.063 364.499 117.124C361.454 119.153 356.194 121.092 351.856 121.092H351.857ZM187.411 81.5953C185.473 81.5953 183.72 82.0564 182.427 82.9794C178.829 85.194 176.983 89.6241 176.983 96.0833C176.983 108.173 183.073 116.663 191.748 116.663C194.332 116.663 196.362 115.924 198.116 114.448C200.791 112.232 202.176 107.803 202.176 101.62C202.176 89.6241 196.27 81.5953 187.411 81.5953ZM189.072 121.092C173.384 121.092 167.755 109.557 167.755 98.7598C167.755 91.1929 170.8 85.3788 176.89 81.2258C181.228 78.5501 186.396 77.0737 191.01 77.0737C203.007 77.0737 211.404 85.6559 211.404 98.0216C211.404 106.419 208.082 113.063 201.714 117.124C198.761 119.153 193.501 121.092 189.072 121.092ZM83.5942 120.169C83.4094 119.893 83.2246 119.062 83.317 118.047C83.317 117.308 83.5018 116.846 83.5942 116.663C85.5316 116.385 86.547 116.108 87.6539 115.832C89.4999 115.37 90.2381 114.356 90.3305 112.049C90.6076 106.512 90.6076 95.9909 90.5152 88.7012V88.5164C90.5152 87.6858 90.5152 86.6704 89.4999 85.9322C88.0234 85.0101 86.2699 84.1795 83.9628 83.5328C83.1322 83.2565 82.5788 82.7946 82.6712 82.2411C82.6712 81.6877 83.2246 81.0419 84.4248 80.8571C87.47 80.58 95.4056 78.6425 98.5432 77.2584C98.728 77.4423 99.0051 77.9966 99.0051 78.7349L98.9127 79.7494C98.8203 80.7647 98.728 81.9649 98.728 83.1641C98.728 83.5328 99.0975 83.81 99.4662 83.81C99.6509 83.81 99.8357 83.7176 100.02 83.6252C105.926 79.0111 111.278 77.35 114.047 77.35C118.569 77.35 122.075 79.4731 124.752 83.9023C124.936 84.1795 125.121 84.271 125.398 84.271C125.582 84.271 125.859 84.1795 125.951 83.9947C131.396 79.8417 136.84 77.35 140.439 77.35C149.021 77.35 154.097 83.7176 154.097 94.5145C154.097 97.5597 154.097 101.528 154.005 105.127C154.005 108.357 153.913 111.31 153.913 113.433C153.913 113.894 154.558 115.37 155.574 115.647C156.865 116.293 158.619 116.57 160.926 116.939H161.018C161.203 117.585 160.834 119.984 160.465 120.446C159.911 120.446 159.08 120.446 158.158 120.354C156.404 120.261 153.913 120.169 151.144 120.169C145.423 120.169 142.47 120.261 139.609 120.446C139.425 119.708 139.332 117.493 139.609 116.939C141.27 116.663 142.1 116.385 143.116 116.108C144.962 115.555 145.423 114.724 145.515 112.325C145.515 110.572 145.884 95.6222 145.33 92.0227C144.777 88.3316 142.008 83.9947 135.917 83.9947C133.61 83.9947 130.012 84.9177 126.505 87.5934C126.321 87.7782 126.136 88.2392 126.136 88.5164V88.6088C126.505 90.5463 126.505 92.7618 126.505 96.1757V102.174C126.505 106.327 126.412 110.203 126.505 113.155C126.505 115.186 127.705 115.647 128.72 116.017C129.274 116.108 129.642 116.201 130.104 116.293C130.935 116.478 131.765 116.663 133.057 116.939C133.242 117.308 133.242 118.508 132.965 119.523C132.872 120.076 132.687 120.354 132.596 120.446C129.458 120.354 126.228 120.261 121.522 120.261C120.138 120.261 117.738 120.354 115.708 120.354C114.047 120.354 112.478 120.446 111.556 120.446C111.463 120.261 111.278 119.615 111.278 118.6C111.278 117.769 111.463 117.124 111.648 116.939C112.109 116.846 112.478 116.755 112.94 116.755C114.047 116.57 114.969 116.385 115.892 116.201C117.461 115.74 118.015 114.909 118.107 112.879C118.384 108.265 118.661 95.0688 118.015 91.7464C116.908 86.3941 113.863 83.7176 108.971 83.7176C106.111 83.7176 102.511 85.1016 99.5585 87.3171C99.0975 87.6858 98.728 88.6088 98.728 89.4394V94.884C98.728 101.528 98.728 109.834 98.8203 113.433C98.9127 114.539 99.2814 115.832 101.405 116.293C101.866 116.385 102.604 116.57 103.527 116.663L105.188 116.939C105.373 117.493 105.28 119.708 104.911 120.446C103.988 120.446 102.881 120.354 101.588 120.354C99.6509 120.261 97.1591 120.169 94.3911 120.169C91.1611 120.169 88.854 120.261 87.0081 120.354C85.7164 120.169 84.7011 120.169 83.5942 120.169Z" fill="#442D22"/>
<g clip-path="url(#clip1_308_2641)">
<path fill-rule="evenodd" clip-rule="evenodd" d="M35.0536 142.317L31.2702 141.025C31.2702 141.025 31.7321 121.738 24.811 120.354C20.197 115.001 25.5493 -106.659 42.1595 119.615C42.1595 119.615 36.4385 122.476 35.4232 127.367C34.3154 132.166 35.0536 142.317 35.0536 142.317Z" fill="white"/>
<path fill-rule="evenodd" clip-rule="evenodd" d="M35.0536 142.317L31.2702 141.025C31.2702 141.025 31.7321 121.738 24.811 120.354C20.197 115.001 25.5493 -106.659 42.1595 119.615C42.1595 119.615 36.4385 122.476 35.4232 127.367C34.3154 132.166 35.0536 142.317 35.0536 142.317Z" fill="#A6A385"/>
<path fill-rule="evenodd" clip-rule="evenodd" d="M37.0842 123.676C37.0842 123.676 70.2131 101.897 62.4614 56.5867C54.9869 23.6426 37.3605 12.8457 35.423 8.69273C33.3008 5.73988 31.27 0.572388 31.27 0.572388L32.6549 92.2074C32.6549 92.2998 29.7936 120.261 37.0842 123.676Z" fill="white"/>
<path fill-rule="evenodd" clip-rule="evenodd" d="M37.0842 123.676C37.0842 123.676 70.2131 101.897 62.4614 56.5867C54.9869 23.6426 37.3605 12.8457 35.423 8.69273C33.3008 5.73988 31.27 0.572388 31.27 0.572388L32.6549 92.2074C32.6549 92.2998 29.7936 120.261 37.0842 123.676Z" fill="#499D4A"/>
<path fill-rule="evenodd" clip-rule="evenodd" d="M29.3326 124.875C29.3326 124.875 -1.76643 103.65 0.0795317 66.2768C1.83225 28.9025 23.7956 10.5387 28.0401 7.21633C30.809 4.26348 30.9014 3.15573 31.0862 0.202881C33.0237 4.35587 32.655 62.3086 32.9313 69.1372C33.7619 95.4375 31.4549 119.893 29.3326 124.875Z" fill="white"/>
<path fill-rule="evenodd" clip-rule="evenodd" d="M29.3326 124.875C29.3326 124.875 -1.76643 103.65 0.0795317 66.2768C1.83225 28.9025 23.7956 10.5387 28.0401 7.21633C30.809 4.26348 30.9014 3.15573 31.0862 0.202881C33.0237 4.35587 32.655 62.3086 32.9313 69.1372C33.7619 95.4375 31.4549 119.893 29.3326 124.875Z" fill="#58AA50"/>
</g>
</g>
<defs>
<clipPath id="clip0_308_2641">
<rect width="512" height="146" fill="white"/>
</clipPath>
<clipPath id="clip1_308_2641">
<rect width="64" height="143" fill="white"/>
</clipPath>
</defs>
</svg>
